<!-- Generated by IcoMoon.io -->
<svg version="1.1" xmlns="http://www.w3.org/2000/svg" width="32" height="32" viewBox="0 0 32 32">
<title>hand</title>
<path d="M16.583 24.928c-0.965-0.032-1.932-0.049-2.903-0.085-1.908-0.083-3.801-0.233-5.599-0.957-2.025-0.818-3.036-2.34-2.982-4.519 0.055-2.204 0.101-4.407 0.191-6.612 0.082-2.003 1.075-3.432 2.9-4.276 0.912-0.422 1.887-0.426 2.853-0.349 2.037 0.168 3.885-0.338 5.574-1.471 0.504-0.337 1.025-0.661 1.58-0.9 1.483-0.658 3.108 0.364 3.206 1.986 0.032 0.578-0.15 1.104-0.427 1.605-0.537 0.98-1.361 1.674-2.284 2.278-0.128 0.081-0.191 0.251-0.286 0.382 0.157 0.070 0.304 0.203 0.465 0.207 0.84 0.037 1.681 0.049 2.518 0.066 0.781 0.011 1.903-0.007 2.378 0.008 1.272 0.038 2.544 0.042 3.813 0.121 0.427 0.032 0.89 0.16 1.259 0.367 0.924 0.531 1.357 1.703 1.074 2.668-0.337 1.134-1.24 1.831-2.373 1.815s-2.261-0.062-3.397-0.097c-0.146-0.002-0.295 0.012-0.499 0.019 0.066 0.16 0.103 0.265 0.153 0.362 0.702 1.41 0.018 3.012-1.478 3.461-0.436 0.135-0.465 0.2-0.283 0.618 0.703 1.601-0.316 3.306-2.070 3.43-0.293 0.022-0.582 0.002-0.87-0.007l-2.512-0.122zM13.95 24.111c1.945 0.067 3.893 0.118 5.845 0.164 0.691 0.016 1.222-0.31 1.519-0.935 0.289-0.614 0.203-1.213-0.218-1.744-0.334-0.424-0.797-0.586-1.328-0.607-1.846-0.073-3.687-0.151-5.53-0.239-0.223-0.015-0.576 0.077-0.555-0.298 0.016-0.369 0.361-0.258 0.583-0.254 2.437 0.034 4.878 0.087 7.315 0.121 0.771 0.013 1.381-0.411 1.619-1.097 0.233-0.68 0.037-1.438-0.565-1.839-0.308-0.197-0.71-0.324-1.075-0.346-1.77-0.105-3.544-0.169-5.315-0.248-0.101-0.004-0.23 0.006-0.308-0.041-0.084-0.052-0.182-0.167-0.181-0.253 0.007-0.081 0.119-0.2 0.204-0.233 0.128-0.046 0.276-0.034 0.418-0.026 3.347 0.070 6.699 0.133 10.046 0.203 0.338 0.011 0.677 0.023 1.014 0.024 1.001 0.006 1.732-0.668 1.751-1.59s-0.684-1.639-1.664-1.674c-3.314-0.115-6.626-0.21-9.94-0.326-1.072-0.040-2.146-0.1-3.215-0.156-0.192-0.010-0.441 0.010-0.449-0.265-0.004-0.306 0.249-0.296 0.457-0.284 2.332 0.131 4.092-0.994 5.597-2.615 0.386-0.413 0.625-0.934 0.694-1.507 0.16-1.141-0.94-2.051-2.022-1.647-0.451 0.167-0.88 0.437-1.29 0.703-1.181 0.756-2.38 1.49-3.795 1.66-1.035 0.125-2.092 0.112-3.14 0.098-2.030-0.033-3.398 0.813-4.159 2.687-0.155 0.381-0.217 0.813-0.235 1.233-0.081 2.168-0.121 4.34-0.202 6.509-0.077 2.223 1.012 3.351 2.751 4.013 1.828 0.623 3.597 0.753 5.375 0.812z"></path>
<path d="M8.583 23.288c1.82 0.635 3.595 0.769 5.373 0.827 1.945 0.067 3.893 0.118 5.845 0.164 0.691 0.016 1.222-0.31 1.519-0.935 0.289-0.614 0.203-1.213-0.218-1.744-0.334-0.424-0.797-0.586-1.328-0.607-1.846-0.073-3.687-0.151-5.53-0.239-0.223-0.015-0.576 0.077-0.555-0.298 0.016-0.369 0.361-0.258 0.583-0.254 2.437 0.034 4.878 0.087 7.315 0.121 0.771 0.013 1.381-0.411 1.619-1.097 0.233-0.68 0.037-1.438-0.565-1.839-0.308-0.197-0.71-0.324-1.075-0.346-1.77-0.105-3.544-0.169-5.315-0.248-0.101-0.004-0.23 0.006-0.308-0.041-0.084-0.052-0.182-0.167-0.181-0.253 0.007-0.081 0.119-0.2 0.204-0.233 0.128-0.046 0.276-0.034 0.418-0.026 3.347 0.070 6.699 0.133 10.046 0.203 0.338 0.011 0.677 0.023 1.014 0.024 0.995 0.002 1.727-0.672 1.745-1.594s-0.684-1.639-1.664-1.674c-3.314-0.115-6.626-0.21-9.94-0.325-1.072-0.040-2.146-0.1-3.215-0.156-0.192-0.010-0.441 0.010-0.449-0.265-0.004-0.306 0.249-0.296 0.457-0.284 2.332 0.131 4.092-0.994 5.597-2.615 0.386-0.413 0.625-0.934 0.694-1.507 0.16-1.141-0.94-2.051-2.022-1.647-0.451 0.167-0.88 0.437-1.29 0.703-1.181 0.756-2.38 1.49-3.795 1.66-1.035 0.125-2.092 0.112-3.14 0.098-2.030-0.033-3.397 0.813-4.158 2.687-0.155 0.381-0.217 0.813-0.235 1.233-0.081 2.168-0.121 4.34-0.202 6.509-0.069 2.212 1.020 3.339 2.759 4.002z"></path>
</svg>
