<!-- Generated by IcoMoon.io -->
<svg version="1.1" xmlns="http://www.w3.org/2000/svg" width="32" height="32" viewBox="0 0 32 32">
<title>phone</title>
<path d="M16.006 0h-0.006c-8.825 0-16 7.175-16 16 0 3.5 1.125 6.744 3.044 9.375l-1.994 5.944 6.15-1.969c2.531 1.681 5.55 2.65 8.806 2.65 8.819 0 15.994-7.175 15.994-16s-7.175-16-15.994-16zM25.313 22.594c-0.387 1.087-1.919 1.994-3.138 2.256-0.837 0.175-1.925 0.319-5.606-1.206-4.7-1.95-7.731-6.725-7.969-7.038-0.225-0.312-1.9-2.531-1.9-4.825s1.169-3.412 1.637-3.894c0.387-0.394 1.025-0.575 1.638-0.575 0.2 0 0.375 0.013 0.537 0.019 0.469 0.019 0.706 0.050 1.019 0.788 0.387 0.931 1.325 3.225 1.438 3.463s0.225 0.556 0.069 0.869c-0.15 0.319-0.281 0.463-0.519 0.731-0.238 0.275-0.463 0.481-0.694 0.775-0.219 0.256-0.462 0.525-0.188 0.994 0.275 0.463 1.213 1.994 2.594 3.225 1.787 1.588 3.231 2.1 3.75 2.313 0.387 0.163 0.844 0.125 1.125-0.175 0.356-0.387 0.8-1.025 1.25-1.656 0.319-0.45 0.725-0.506 1.15-0.35 0.431 0.15 2.719 1.281 3.188 1.512 0.469 0.238 0.781 0.35 0.894 0.544 0.113 0.212 0.113 1.137-0.275 2.231z"></path>
</svg>
