<!-- Generated by IcoMoon.io -->
<svg version="1.1" xmlns="http://www.w3.org/2000/svg" width="30" height="32" viewBox="0 0 30 32">
<title>viber</title>
<path d="M29.408 18.529c0.971-8.027-0.464-13.098-3.047-15.388-4.17-3.914-18.242-4.497-23.231 0.175-2.237 2.282-3.022 5.637-3.115 9.784-0.084 4.155-0.186 11.932 7.158 14.047h0.008l-0.008 3.223c0 0-0.051 1.307 0.793 1.566 0.971 0.308 1.401-0.3 4.415-3.839 5.031 0.433 8.889-0.558 9.328-0.699 1.021-0.341 6.77-1.091 7.699-8.868zM12.879 25.824c0 0-3.182 3.914-4.17 4.93-0.321 0.333-0.675 0.3-0.675-0.358 0-0.433 0.025-5.354 0.025-5.354-6.23-1.749-5.867-8.377-5.799-11.841s0.709-6.303 2.608-8.219c4.373-4.047 16.714-3.139 19.863-0.225 3.841 3.364 2.473 12.857 2.482 13.181-0.794 6.495-5.445 6.903-6.306 7.186-0.363 0.125-3.765 0.983-8.028 0.699z"></path>
<path d="M14.647 5.746c-0.523 0-0.523 0.799 0 0.808 4.035 0.033 7.361 2.806 7.395 7.894 0 0.533 0.794 0.533 0.794-0.008-0.051-5.487-3.681-8.668-8.188-8.693z"></path>
<path d="M19.946 13.598c-0.008 0.533 0.785 0.558 0.794 0.017 0.068-3.023-1.823-5.512-5.377-5.779-0.523-0.033-0.574 0.766-0.059 0.808 3.090 0.233 4.71 2.306 4.643 4.954z"></path>
<path d="M19.102 17.037c-0.667-0.383-1.351-0.142-1.629 0.233l-0.591 0.749c-0.295 0.383-0.853 0.333-0.853 0.333-4.069-1.066-5.158-5.263-5.158-5.263s-0.051-0.566 0.321-0.874l0.734-0.6c0.371-0.291 0.599-0.983 0.228-1.657-0.996-1.782-1.671-2.398-2.009-2.864-0.363-0.441-0.903-0.541-1.46-0.242h-0.008c-1.165 0.674-2.448 1.94-2.034 3.239 0.701 1.366 1.984 5.737 6.069 9.035 1.925 1.557 4.964 3.156 6.255 3.531l0.008 0.017c1.275 0.416 2.507-0.891 3.174-2.082v-0.025c0.295-0.575 0.194-1.116-0.236-1.474-0.768-0.733-1.916-1.54-2.811-2.057z"></path>
<path d="M15.918 10.817c1.3 0.075 1.925 0.741 1.992 2.115 0.025 0.533 0.81 0.5 0.794-0.033-0.084-1.79-1.038-2.79-2.744-2.889-0.515-0.033-0.566 0.774-0.042 0.808z"></path>
</svg>
