<!-- Generated by IcoMoon.io -->
<svg version="1.1" xmlns="http://www.w3.org/2000/svg" width="1365" height="1024" viewBox="0 0 1365 1024">
<title>facebook</title>
<g id="icomoon-ignore">
</g>
<path d="M1335.177 166.786c-7.76-30.32-22.96-57.964-44.078-80.167-21.111-22.202-47.4-38.184-76.237-46.345-106.189-30.219-532.884-30.219-532.884-30.219s-426.701 0-532.889 30.219c-28.835 8.161-55.125 24.143-76.239 46.345s-36.313 49.847-44.075 80.167c-19.828 113.873-29.449 229.452-28.739 345.217-0.711 115.766 8.911 231.342 28.739 345.216 7.761 30.322 22.96 57.964 44.075 80.168s47.404 38.184 76.239 46.342c106.188 30.219 532.889 30.219 532.889 30.219s426.695 0 532.884-30.219c28.837-8.158 55.125-24.138 76.237-46.342 21.117-22.204 36.318-49.846 44.078-80.168 19.826-113.874 29.451-229.45 28.74-345.216 0.711-115.764-8.914-231.343-28.74-345.217zM545.588 727.125v-430.243l354.121 215.12-354.121 215.122z"></path>
</svg>
