<svg style="display: none;" aria-hidden="true" xmlns="http://www.w3.org/2000/svg" xmlns:xlink="http://www.w3.org/1999/xlink"><symbol viewBox="0 0 512 512" id="svg-facebook"><path d="M304 96h80v-96h-80c-61.757 0-112 50.243-112 112v48h-64v96h64v256h96v-256h80l16-96h-96v-48c0-8.673 7.327-16 16-16z"/></symbol><symbol viewBox="0 0 1024 1024" id="svg-instagram"><path d="M512.077 249.491c-145.281 0-262.529 117.248-262.529 262.526 0 145.28 117.248 262.528 262.529 262.528s262.528-117.248 262.528-262.528c0-145.278-117.248-262.526-262.528-262.526zM512.077 682.641c-93.953 0-170.625-76.672-170.625-170.624 0-93.95 76.672-170.622 170.625-170.622s170.624 76.672 170.624 170.622c0 93.952-76.672 170.624-170.624 170.624zM785.357 177.555c-33.92 0-61.312 27.392-61.312 61.312s27.392 61.312 61.312 61.312c33.92 0 61.312-27.264 61.312-61.312 0.009-8.055-1.57-16.032-4.646-23.475-3.081-7.443-7.595-14.206-13.291-19.901s-12.459-10.211-19.9-13.289c-7.445-3.078-15.424-4.657-23.475-4.646zM1023.821 512.017c0-70.656 0.64-140.67-3.328-211.198-3.968-81.92-22.656-154.624-82.56-214.528-60.032-60.032-132.608-78.592-214.528-82.56-70.656-3.968-140.672-3.328-211.2-3.328-70.656 0-140.673-0.64-211.201 3.328-81.92 3.968-154.624 22.656-214.528 82.56-60.032 60.032-78.592 132.608-82.56 214.528-3.968 70.656-3.328 140.67-3.328 211.198s-0.64 140.672 3.328 211.2c3.968 81.92 22.656 154.624 82.56 214.528 60.032 60.032 132.608 78.592 214.528 82.56 70.656 3.968 140.673 3.328 211.201 3.328 70.656 0 140.672 0.64 211.2-3.328 81.92-3.968 154.624-22.656 214.528-82.56 60.032-60.032 78.592-132.608 82.56-214.528 4.096-70.528 3.328-140.544 3.328-211.2zM911.181 813.841c-9.344 23.296-20.608 40.704-38.656 58.624-18.048 18.048-35.328 29.312-58.624 38.656-67.328 26.752-227.2 20.736-301.824 20.736s-234.625 6.016-301.953-20.608c-23.296-9.344-40.704-20.608-58.624-38.656-18.048-18.048-29.312-35.328-38.656-58.624-26.624-67.456-20.608-227.328-20.608-301.952s-6.016-234.622 20.608-301.95c9.344-23.296 20.608-40.704 38.656-58.624s35.328-29.312 58.624-38.656c67.328-26.624 227.329-20.608 301.953-20.608s234.624-6.016 301.952 20.608c23.296 9.344 40.704 20.608 58.624 38.656 18.048 18.048 29.312 35.328 38.656 58.624 26.624 67.328 20.608 227.326 20.608 301.95s6.016 234.496-20.736 301.824z"/></symbol><symbol viewBox="0 0 1229 1024" id="svg-twitter"><path d="M1228.82 126.233c-45.138 19.76-94.259 33.981-144.86 39.52 52.531-31.67 91.873-81.704 110.638-140.715-49.295 29.758-103.296 50.625-159.611 61.675-23.537-25.534-52.004-45.876-83.625-59.758-31.626-13.882-65.725-21.006-100.178-20.929-139.402 0-251.515 114.668-251.515 255.383 0 19.76 2.36 39.52 6.195 58.532-208.732-11.078-394.896-112.273-518.661-267.21-22.552 39.089-34.369 83.595-34.224 128.889 0 88.621 44.402 166.762 112.111 212.72-39.902-1.595-78.87-12.725-113.734-32.484v3.144c0 124.099 86.444 226.939 201.653 250.594-21.631 5.704-43.885 8.617-66.234 8.684-16.374 0-31.863-1.649-47.5-3.896 31.863 101.197 124.65 174.7 235.139 177.096-86.444 68.71-194.72 109.128-312.289 109.128-21.095 0-40.567-0.748-60.776-3.144 111.521 72.602 243.842 114.519 386.342 114.519 462.607 0 715.74-388.915 715.74-726.481 0-11.078 0-22.155-0.737-33.233 48.978-36.376 91.904-81.435 126.126-132.033z"/></symbol><symbol viewBox="0 0 1365 1024" id="svg-youtube"><path d="M1335.177 166.786c-7.76-30.32-22.96-57.964-44.078-80.167-21.111-22.202-47.4-38.184-76.237-46.345-106.189-30.219-532.884-30.219-532.884-30.219s-426.701 0-532.889 30.219c-28.835 8.161-55.125 24.143-76.239 46.345s-36.313 49.847-44.075 80.167c-19.828 113.873-29.449 229.452-28.739 345.217-0.711 115.766 8.911 231.342 28.739 345.216 7.761 30.322 22.96 57.964 44.075 80.168s47.404 38.184 76.239 46.342c106.188 30.219 532.889 30.219 532.889 30.219s426.695 0 532.884-30.219c28.837-8.158 55.125-24.138 76.237-46.342 21.117-22.204 36.318-49.846 44.078-80.168 19.826-113.874 29.451-229.45 28.74-345.216 0.711-115.764-8.914-231.343-28.74-345.217zM545.588 727.125v-430.243l354.121 215.12-354.121 215.122z"/></symbol></svg>