<svg style="display: none;" aria-hidden="true" xmlns="http://www.w3.org/2000/svg" xmlns:xlink="http://www.w3.org/1999/xlink"><symbol viewBox="0 0 512 512" id="svg-facebook"><path d="M304 96h80v-96h-80c-61.757 0-112 50.243-112 112v48h-64v96h64v256h96v-256h80l16-96h-96v-48c0-8.673 7.327-16 16-16z"/></symbol><symbol viewBox="0 0 32 32" id="svg-hand"><path fill="#000000" d="M16.583 24.928c-0.965-0.032-1.932-0.049-2.903-0.085-1.908-0.083-3.801-0.233-5.599-0.957-2.025-0.818-3.036-2.34-2.982-4.519 0.055-2.204 0.101-4.407 0.191-6.612 0.082-2.003 1.075-3.432 2.9-4.276 0.912-0.422 1.887-0.426 2.853-0.349 2.037 0.168 3.885-0.338 5.574-1.471 0.504-0.337 1.025-0.661 1.58-0.9 1.483-0.658 3.108 0.364 3.206 1.986 0.032 0.578-0.15 1.104-0.427 1.605-0.537 0.98-1.361 1.674-2.284 2.278-0.128 0.081-0.191 0.251-0.286 0.382 0.157 0.070 0.304 0.203 0.465 0.207 0.84 0.037 1.681 0.049 2.518 0.066 0.781 0.011 1.903-0.007 2.378 0.008 1.272 0.038 2.544 0.042 3.813 0.121 0.427 0.032 0.89 0.16 1.259 0.367 0.924 0.531 1.357 1.703 1.074 2.668-0.337 1.134-1.24 1.831-2.373 1.815s-2.261-0.062-3.397-0.097c-0.146-0.002-0.295 0.012-0.499 0.019 0.066 0.16 0.103 0.265 0.153 0.362 0.702 1.41 0.018 3.012-1.478 3.461-0.436 0.135-0.465 0.2-0.283 0.618 0.703 1.601-0.316 3.306-2.070 3.43-0.293 0.022-0.582 0.002-0.87-0.007l-2.512-0.122zM13.95 24.111c1.945 0.067 3.893 0.118 5.845 0.164 0.691 0.016 1.222-0.31 1.519-0.935 0.289-0.614 0.203-1.213-0.218-1.744-0.334-0.424-0.797-0.586-1.328-0.607-1.846-0.073-3.687-0.151-5.53-0.239-0.223-0.015-0.576 0.077-0.555-0.298 0.016-0.369 0.361-0.258 0.583-0.254 2.437 0.034 4.878 0.087 7.315 0.121 0.771 0.013 1.381-0.411 1.619-1.097 0.233-0.68 0.037-1.438-0.565-1.839-0.308-0.197-0.71-0.324-1.075-0.346-1.77-0.105-3.544-0.169-5.315-0.248-0.101-0.004-0.23 0.006-0.308-0.041-0.084-0.052-0.182-0.167-0.181-0.253 0.007-0.081 0.119-0.2 0.204-0.233 0.128-0.046 0.276-0.034 0.418-0.026 3.347 0.070 6.699 0.133 10.046 0.203 0.338 0.011 0.677 0.023 1.014 0.024 1.001 0.006 1.732-0.668 1.751-1.59s-0.684-1.639-1.664-1.674c-3.314-0.115-6.626-0.21-9.94-0.326-1.072-0.040-2.146-0.1-3.215-0.156-0.192-0.010-0.441 0.010-0.449-0.265-0.004-0.306 0.249-0.296 0.457-0.284 2.332 0.131 4.092-0.994 5.597-2.615 0.386-0.413 0.625-0.934 0.694-1.507 0.16-1.141-0.94-2.051-2.022-1.647-0.451 0.167-0.88 0.437-1.29 0.703-1.181 0.756-2.38 1.49-3.795 1.66-1.035 0.125-2.092 0.112-3.14 0.098-2.030-0.033-3.398 0.813-4.159 2.687-0.155 0.381-0.217 0.813-0.235 1.233-0.081 2.168-0.121 4.34-0.202 6.509-0.077 2.223 1.012 3.351 2.751 4.013 1.828 0.623 3.597 0.753 5.375 0.812z"/><path d="M8.583 23.288c1.82 0.635 3.595 0.769 5.373 0.827 1.945 0.067 3.893 0.118 5.845 0.164 0.691 0.016 1.222-0.31 1.519-0.935 0.289-0.614 0.203-1.213-0.218-1.744-0.334-0.424-0.797-0.586-1.328-0.607-1.846-0.073-3.687-0.151-5.53-0.239-0.223-0.015-0.576 0.077-0.555-0.298 0.016-0.369 0.361-0.258 0.583-0.254 2.437 0.034 4.878 0.087 7.315 0.121 0.771 0.013 1.381-0.411 1.619-1.097 0.233-0.68 0.037-1.438-0.565-1.839-0.308-0.197-0.71-0.324-1.075-0.346-1.77-0.105-3.544-0.169-5.315-0.248-0.101-0.004-0.23 0.006-0.308-0.041-0.084-0.052-0.182-0.167-0.181-0.253 0.007-0.081 0.119-0.2 0.204-0.233 0.128-0.046 0.276-0.034 0.418-0.026 3.347 0.070 6.699 0.133 10.046 0.203 0.338 0.011 0.677 0.023 1.014 0.024 0.995 0.002 1.727-0.672 1.745-1.594s-0.684-1.639-1.664-1.674c-3.314-0.115-6.626-0.21-9.94-0.325-1.072-0.040-2.146-0.1-3.215-0.156-0.192-0.010-0.441 0.010-0.449-0.265-0.004-0.306 0.249-0.296 0.457-0.284 2.332 0.131 4.092-0.994 5.597-2.615 0.386-0.413 0.625-0.934 0.694-1.507 0.16-1.141-0.94-2.051-2.022-1.647-0.451 0.167-0.88 0.437-1.29 0.703-1.181 0.756-2.38 1.49-3.795 1.66-1.035 0.125-2.092 0.112-3.14 0.098-2.030-0.033-3.397 0.813-4.158 2.687-0.155 0.381-0.217 0.813-0.235 1.233-0.081 2.168-0.121 4.34-0.202 6.509-0.069 2.212 1.020 3.339 2.759 4.002z"/></symbol><symbol viewBox="0 0 1024 1024" id="svg-instagram"><path d="M512.077 249.491c-145.281 0-262.529 117.248-262.529 262.526 0 145.28 117.248 262.528 262.529 262.528s262.528-117.248 262.528-262.528c0-145.278-117.248-262.526-262.528-262.526zM512.077 682.641c-93.953 0-170.625-76.672-170.625-170.624 0-93.95 76.672-170.622 170.625-170.622s170.624 76.672 170.624 170.622c0 93.952-76.672 170.624-170.624 170.624zM785.357 177.555c-33.92 0-61.312 27.392-61.312 61.312s27.392 61.312 61.312 61.312c33.92 0 61.312-27.264 61.312-61.312 0.009-8.055-1.57-16.032-4.646-23.475-3.081-7.443-7.595-14.206-13.291-19.901s-12.459-10.211-19.9-13.289c-7.445-3.078-15.424-4.657-23.475-4.646zM1023.821 512.017c0-70.656 0.64-140.67-3.328-211.198-3.968-81.92-22.656-154.624-82.56-214.528-60.032-60.032-132.608-78.592-214.528-82.56-70.656-3.968-140.672-3.328-211.2-3.328-70.656 0-140.673-0.64-211.201 3.328-81.92 3.968-154.624 22.656-214.528 82.56-60.032 60.032-78.592 132.608-82.56 214.528-3.968 70.656-3.328 140.67-3.328 211.198s-0.64 140.672 3.328 211.2c3.968 81.92 22.656 154.624 82.56 214.528 60.032 60.032 132.608 78.592 214.528 82.56 70.656 3.968 140.673 3.328 211.201 3.328 70.656 0 140.672 0.64 211.2-3.328 81.92-3.968 154.624-22.656 214.528-82.56 60.032-60.032 78.592-132.608 82.56-214.528 4.096-70.528 3.328-140.544 3.328-211.2zM911.181 813.841c-9.344 23.296-20.608 40.704-38.656 58.624-18.048 18.048-35.328 29.312-58.624 38.656-67.328 26.752-227.2 20.736-301.824 20.736s-234.625 6.016-301.953-20.608c-23.296-9.344-40.704-20.608-58.624-38.656-18.048-18.048-29.312-35.328-38.656-58.624-26.624-67.456-20.608-227.328-20.608-301.952s-6.016-234.622 20.608-301.95c9.344-23.296 20.608-40.704 38.656-58.624s35.328-29.312 58.624-38.656c67.328-26.624 227.329-20.608 301.953-20.608s234.624-6.016 301.952 20.608c23.296 9.344 40.704 20.608 58.624 38.656 18.048 18.048 29.312 35.328 38.656 58.624 26.624 67.328 20.608 227.326 20.608 301.95s6.016 234.496-20.736 301.824z"/></symbol><symbol viewBox="0 0 32 32" id="svg-phone"><path d="M16.006 0h-0.006c-8.825 0-16 7.175-16 16 0 3.5 1.125 6.744 3.044 9.375l-1.994 5.944 6.15-1.969c2.531 1.681 5.55 2.65 8.806 2.65 8.819 0 15.994-7.175 15.994-16s-7.175-16-15.994-16zM25.313 22.594c-0.387 1.087-1.919 1.994-3.138 2.256-0.837 0.175-1.925 0.319-5.606-1.206-4.7-1.95-7.731-6.725-7.969-7.038-0.225-0.312-1.9-2.531-1.9-4.825s1.169-3.412 1.637-3.894c0.387-0.394 1.025-0.575 1.638-0.575 0.2 0 0.375 0.013 0.537 0.019 0.469 0.019 0.706 0.050 1.019 0.788 0.387 0.931 1.325 3.225 1.438 3.463s0.225 0.556 0.069 0.869c-0.15 0.319-0.281 0.463-0.519 0.731-0.238 0.275-0.463 0.481-0.694 0.775-0.219 0.256-0.462 0.525-0.188 0.994 0.275 0.463 1.213 1.994 2.594 3.225 1.787 1.588 3.231 2.1 3.75 2.313 0.387 0.163 0.844 0.125 1.125-0.175 0.356-0.387 0.8-1.025 1.25-1.656 0.319-0.45 0.725-0.506 1.15-0.35 0.431 0.15 2.719 1.281 3.188 1.512 0.469 0.238 0.781 0.35 0.894 0.544 0.113 0.212 0.113 1.137-0.275 2.231z"/></symbol><symbol viewBox="0 0 41 32" id="svg-telegram"><path d="M15.976 21.098l-0.679 8.94c0.955 0 1.379-0.4 1.888-0.86l4.518-4.080 9.355 6.46c1.718 0.9 2.927 0.42 3.394-1.48l6.151-27.16c0.552-2.4-0.912-3.32-2.588-2.74l-36.124 13.040c-2.461 0.9-2.418 2.2-0.424 2.78l9.227 2.7 21.446-12.66c1.018-0.64 1.93-0.28 1.167 0.34l-17.33 14.72z"/></symbol><symbol viewBox="0 0 1229 1024" id="svg-twitter"><path d="M1228.82 126.233c-45.138 19.76-94.259 33.981-144.86 39.52 52.531-31.67 91.873-81.704 110.638-140.715-49.295 29.758-103.296 50.625-159.611 61.675-23.537-25.534-52.004-45.876-83.625-59.758-31.626-13.882-65.725-21.006-100.178-20.929-139.402 0-251.515 114.668-251.515 255.383 0 19.76 2.36 39.52 6.195 58.532-208.732-11.078-394.896-112.273-518.661-267.21-22.552 39.089-34.369 83.595-34.224 128.889 0 88.621 44.402 166.762 112.111 212.72-39.902-1.595-78.87-12.725-113.734-32.484v3.144c0 124.099 86.444 226.939 201.653 250.594-21.631 5.704-43.885 8.617-66.234 8.684-16.374 0-31.863-1.649-47.5-3.896 31.863 101.197 124.65 174.7 235.139 177.096-86.444 68.71-194.72 109.128-312.289 109.128-21.095 0-40.567-0.748-60.776-3.144 111.521 72.602 243.842 114.519 386.342 114.519 462.607 0 715.74-388.915 715.74-726.481 0-11.078 0-22.155-0.737-33.233 48.978-36.376 91.904-81.435 126.126-132.033z"/></symbol><symbol viewBox="0 0 30 32" id="svg-viber"><path d="M29.408 18.529c0.971-8.027-0.464-13.098-3.047-15.388-4.17-3.914-18.242-4.497-23.231 0.175-2.237 2.282-3.022 5.637-3.115 9.784-0.084 4.155-0.186 11.932 7.158 14.047h0.008l-0.008 3.223c0 0-0.051 1.307 0.793 1.566 0.971 0.308 1.401-0.3 4.415-3.839 5.031 0.433 8.889-0.558 9.328-0.699 1.021-0.341 6.77-1.091 7.699-8.868zM12.879 25.824c0 0-3.182 3.914-4.17 4.93-0.321 0.333-0.675 0.3-0.675-0.358 0-0.433 0.025-5.354 0.025-5.354-6.23-1.749-5.867-8.377-5.799-11.841s0.709-6.303 2.608-8.219c4.373-4.047 16.714-3.139 19.863-0.225 3.841 3.364 2.473 12.857 2.482 13.181-0.794 6.495-5.445 6.903-6.306 7.186-0.363 0.125-3.765 0.983-8.028 0.699z"/><path d="M14.647 5.746c-0.523 0-0.523 0.799 0 0.808 4.035 0.033 7.361 2.806 7.395 7.894 0 0.533 0.794 0.533 0.794-0.008-0.051-5.487-3.681-8.668-8.188-8.693z"/><path d="M19.946 13.598c-.008.533.785.558.794.017.068-3.023-1.823-5.512-5.377-5.779-.523-.033-.574.766-.059.808 3.09.233 4.71 2.306 4.643 4.954zM19.102 17.037c-.667-.383-1.351-.142-1.629.233l-.591.749c-.295.383-.853.333-.853.333-4.069-1.066-5.158-5.263-5.158-5.263s-.051-.566.321-.874l.734-.6c.371-.291.599-.983.228-1.657-.996-1.782-1.671-2.398-2.009-2.864-.363-.441-.903-.541-1.46-.242h-.008c-1.165.674-2.448 1.94-2.034 3.239.701 1.366 1.984 5.737 6.069 9.035 1.925 1.557 4.964 3.156 6.255 3.531l.008.017c1.275.416 2.507-.891 3.174-2.082v-.025c.295-.575.194-1.116-.236-1.474-.768-.733-1.916-1.54-2.811-2.057z"/><path d="M15.918 10.817c1.3 0.075 1.925 0.741 1.992 2.115 0.025 0.533 0.81 0.5 0.794-0.033-0.084-1.79-1.038-2.79-2.744-2.889-0.515-0.033-0.566 0.774-0.042 0.808z"/></symbol><symbol viewBox="0 0 1365 1024" id="svg-youtube"><path d="M1335.177 166.786c-7.76-30.32-22.96-57.964-44.078-80.167-21.111-22.202-47.4-38.184-76.237-46.345-106.189-30.219-532.884-30.219-532.884-30.219s-426.701 0-532.889 30.219c-28.835 8.161-55.125 24.143-76.239 46.345s-36.313 49.847-44.075 80.167c-19.828 113.873-29.449 229.452-28.739 345.217-0.711 115.766 8.911 231.342 28.739 345.216 7.761 30.322 22.96 57.964 44.075 80.168s47.404 38.184 76.239 46.342c106.188 30.219 532.889 30.219 532.889 30.219s426.695 0 532.884-30.219c28.837-8.158 55.125-24.138 76.237-46.342 21.117-22.204 36.318-49.846 44.078-80.168 19.826-113.874 29.451-229.45 28.74-345.216 0.711-115.764-8.914-231.343-28.74-345.217zM545.588 727.125v-430.243l354.121 215.12-354.121 215.122z"/></symbol></svg>